<?xml version="1.0" encoding="UTF-8" standalone="no"?>
<svg
   xmlns:dc="http://purl.org/dc/elements/1.1/"
   xmlns:cc="http://creativecommons.org/ns#"
   xmlns:rdf="http://www.w3.org/1999/02/22-rdf-syntax-ns#"
   xmlns:svg="http://www.w3.org/2000/svg"
   xmlns="http://www.w3.org/2000/svg"
   xmlns:sodipodi="http://sodipodi.sourceforge.net/DTD/sodipodi-0.dtd"
   xmlns:inkscape="http://www.inkscape.org/namespaces/inkscape"
   version="1.1"
   width="726pt"
   height="187pt"
   viewBox="0 0 725.99998 187"
   id="svg36"
   sodipodi:docname="skylite-logo.svg"
   inkscape:version="0.92.4 (5da689c313, 2019-01-14)">
  <metadata
     id="metadata42">
    <rdf:RDF>
      <cc:Work
         rdf:about="">
        <dc:format>image/svg+xml</dc:format>
        <dc:type
           rdf:resource="http://purl.org/dc/dcmitype/StillImage" />
        <dc:title></dc:title>
      </cc:Work>
    </rdf:RDF>
  </metadata>
  <defs
     id="defs40" />
  <sodipodi:namedview
     pagecolor="#ffffff"
     bordercolor="#666666"
     borderopacity="1"
     objecttolerance="10"
     gridtolerance="10"
     guidetolerance="10"
     inkscape:pageopacity="0"
     inkscape:pageshadow="2"
     inkscape:window-width="1280"
     inkscape:window-height="972"
     id="namedview38"
     showgrid="false"
     inkscape:zoom="1.0947094"
     inkscape:cx="255.1594"
     inkscape:cy="104.61576"
     inkscape:window-x="-8"
     inkscape:window-y="-8"
     inkscape:window-maximized="1"
     inkscape:current-layer="svg36" />
  <g
     id="g34"
     transform="matrix(2.0832502,0,0,2.0832502,-581.66731,-436.84593)"
     style="enable-background:new">
    <g
       id="Layer-1"
       data-name="Layer">
      <path
         transform="matrix(1,0,0,-1,0,510.24)"
         d="m 509.769,299.104 h 11.527 v -50.752 h -11.527 z"
         id="path2"
         inkscape:connector-curvature="0"
         style="fill:#074ea2" />
      <clipPath
         id="cp0">
        <path
           transform="matrix(1,0,0,-1,0,510.24)"
           d="M 0,510.24 H 907.09 V 0 H 0 Z"
           id="path4"
           inkscape:connector-curvature="0" />
      </clipPath>
      <g
         clip-path="url(#cp0)"
         id="g31">
        <path
           transform="matrix(1,0,0,-1,577.5439,248.42359)"
           d="M 0,0 C 0,-7.424 6.041,-13.465 13.467,-13.465 H 49.295 V -1.939 H 13.467 c -1.071,0 -1.942,0.871 -1.942,1.939 v 6.148 h 37.77 V 17.675 H 0 Z"
           id="path7"
           inkscape:connector-curvature="0"
           style="fill:#074ea2" />
        <path
           transform="matrix(1,0,0,-1,526.5283,211.1365)"
           d="m 0,0 v -11.462 h 21.66 v -39.29 h 11.526 v 39.29 h 67.125 V 0 Z"
           id="path9"
           inkscape:connector-curvature="0"
           style="fill:#074ea2" />
        <path
           transform="matrix(1,0,0,-1,317.6338,230.74878)"
           d="m 0,0 h -23.918 c -1.069,0 -1.939,0.87 -1.939,1.939 v 4.207 c 0,1.086 0.888,2.004 1.939,2.004 H 30.16 v 11.462 h -54.078 c -7.425,0 -13.465,-6.041 -13.465,-13.466 V 1.939 c 0,-7.424 6.04,-13.465 13.465,-13.465 H 0 c 1.069,0 1.939,-0.87 1.939,-1.94 v -4.209 c 0,-1.068 -0.87,-1.939 -1.939,-1.939 H -35.829 V -31.14 H 0 c 7.389,0 13.4,6.041 13.4,13.465 v 4.209 C 13.4,-6.041 7.389,0 0,0"
           id="path11"
           inkscape:connector-curvature="0"
           style="fill:#074ea2" />
        <path
           transform="matrix(1,0,0,-1,471.8066,250.36298)"
           d="M 0,0 C -1.068,0 -1.939,0.871 -1.939,1.939 V 39.227 H -26.225 L -46.739,17.599 -67.255,39.227 h -27.023 l -21.231,-19.094 -0.202,-0.199 c -0.124,-0.082 -0.257,-0.161 -0.403,-0.239 -0.179,-0.053 -0.379,-0.081 -0.596,-0.081 l -18.829,-0.021 v -31.118 h 11.526 V 8.088 h 7.303 c 0.219,0 0.42,-0.028 0.601,-0.083 0.409,-0.211 0.619,-0.347 0.722,-0.423 l 21.038,-19.107 h 17.253 l -28.077,25.376 24.853,22.462 27.817,-29.385 v -18.453 h 11.526 V 6.928 l 19.726,20.837 h 7.787 V 1.939 c 0,-7.423 6.04,-13.464 13.464,-13.464 H 32.788 V 0 Z"
           id="path13"
           inkscape:connector-curvature="0"
           style="fill:#074ea2" />
        <path
           transform="matrix(1,0,0,-1,287.4033,285.34449)"
           d="m 0,0 h 5.429 c 2.715,0 4.574,1.413 4.574,3.606 0,2.195 -1.859,3.608 -4.574,3.608 H 0 Z M 9.892,-13.313 4.054,-5.021 H 0 v -8.292 h -5.466 v 25.546 h 11.49 c 5.54,0 9.631,-3.569 9.631,-8.627 0,-3.793 -2.305,-6.767 -5.801,-7.994 l 6.285,-8.925 z"
           id="path15"
           inkscape:connector-curvature="0"
           style="fill:#58595b" />
        <path
           transform="matrix(1,0,0,-1,329.1582,285.865)"
           d="m 0,0 c 0,4.425 -3.645,8.218 -7.958,8.218 -4.276,0 -7.921,-3.793 -7.921,-8.218 0,-4.463 3.645,-8.256 7.921,-8.256 C -3.645,-8.256 0,-4.463 0,0 m -21.531,0 c 0,7.177 6.248,13.201 13.573,13.201 7.4,0 13.572,-6.024 13.572,-13.201 0,-7.177 -6.172,-13.238 -13.572,-13.238 -7.325,0 -13.573,6.061 -13.573,13.238"
           id="path17"
           inkscape:connector-curvature="0"
           style="fill:#58595b" />
        <path
           transform="matrix(1,0,0,-1,360.834,285.865)"
           d="m 0,0 c 0,4.425 -3.644,8.218 -7.958,8.218 -4.276,0 -7.92,-3.793 -7.92,-8.218 0,-4.463 3.644,-8.256 7.92,-8.256 C -3.644,-8.256 0,-4.463 0,0 m -21.53,0 c 0,7.177 6.247,13.201 13.572,13.201 7.4,0 13.573,-6.024 13.573,-13.201 0,-7.177 -6.173,-13.238 -13.573,-13.238 -7.325,0 -13.572,6.061 -13.572,13.238"
           id="path19"
           inkscape:connector-curvature="0"
           style="fill:#58595b" />
        <path
           transform="matrix(1,0,0,-1,377.4873,278.0564)"
           d="m 0,0 v -5.541 h 12.829 v -4.945 H 0 V -20.601 H -5.503 V 4.945 H 14.168 V 0 Z"
           id="path21"
           inkscape:connector-curvature="0"
           style="fill:#58595b" />
        <path
           transform="matrix(1,0,0,-1,0,510.24)"
           d="m 397.116,237.129 h 5.504 v -25.546 h -5.504 z"
           id="path23"
           inkscape:connector-curvature="0"
           style="fill:#58595b" />
        <path
           transform="matrix(1,0,0,-1,409.4229,273.11109)"
           d="M 0,0 H 5.466 L 17.774,-16.51 V 0 h 5.503 V -25.546 H 17.774 L 5.466,-9.035 V -25.546 H 0 Z"
           id="path25"
           inkscape:connector-curvature="0"
           style="fill:#58595b" />
        <path
           transform="matrix(1,0,0,-1,451.1758,284.3035)"
           d="M 0,0 H 11.305 V -10.523 C 8.739,-13.2 4.797,-14.8 0.967,-14.8 c -7.4,0 -13.685,6.062 -13.685,13.238 0,7.177 6.285,13.202 13.685,13.202 3.83,0 7.772,-1.6 10.338,-4.278 L 7.326,3.793 C 5.801,5.541 3.31,6.656 0.967,6.656 c -4.351,0 -8.032,-3.793 -8.032,-8.218 0,-4.462 3.681,-8.255 8.032,-8.255 1.748,0 3.533,0.595 4.983,1.636 v 3.905 H 0 Z"
           id="path27"
           inkscape:connector-curvature="0"
           style="fill:#58595b" />
        <path
           transform="matrix(1,0,0,-1,466.9004,294.86399)"
           d="m 0,0 3.16,3.756 c 2.417,-2.083 5.169,-3.347 8.404,-3.347 2.752,0 4.165,1.264 4.165,2.863 0,1.823 -1.488,2.38 -5.392,3.272 -5.392,1.228 -9.222,2.752 -9.222,7.698 0,4.723 3.867,7.958 9.446,7.958 4.164,0 7.399,-1.302 10.001,-3.533 l -2.863,-3.941 c -2.267,1.822 -4.834,2.826 -7.288,2.826 -2.343,0 -3.755,-1.227 -3.755,-2.752 0,-1.86 1.524,-2.454 5.466,-3.347 5.503,-1.227 9.148,-2.863 9.148,-7.586 0,-4.871 -3.682,-8.106 -9.929,-8.106 C 6.916,-4.239 2.975,-2.752 0,0"
           id="path29"
           inkscape:connector-curvature="0"
           style="fill:#58595b" />
      </g>
    </g>
  </g>
</svg>
